<svg xmlns="http://www.w3.org/2000/svg" width="40" viewBox="0 0 30 30" height="40" version="1.0">
  <defs>
    <clipPath id="a">
      <path d="M23 5.344h6V11h-6Zm0 0"/>
    </clipPath>
    <clipPath id="b">
      <path d="M23 18h6v5.488h-6Zm0 0"/>
    </clipPath>
    <clipPath id="c">
      <path d="M.484 5.344H6V11H.484Zm0 0"/>
    </clipPath>
    <clipPath id="d">
      <path d="M.484 18H6v5.488H.484Zm0 0"/>
    </clipPath>
  </defs>
  <path fill="#ffd452" d="M26.398 9.59a1.7 1.7 0 0 1-.648-.13 1.68 1.68 0 0 1-.918-.917 1.7 1.7 0 0 1 0-1.297q.128-.311.367-.547.24-.239.551-.367a1.7 1.7 0 0 1 1.297 0q.311.128.547.367.239.235.367.547a1.7 1.7 0 0 1-.914 2.215 1.7 1.7 0 0 1-.649.129m0 0"/>
  <g clip-path="url(#a)">
    <path stroke-linecap="round" fill="none" stroke-linejoin="round" d="M26.398 9.59a1.7 1.7 0 0 1-.648-.13 1.68 1.68 0 0 1-.918-.917 1.7 1.7 0 0 1 0-1.297q.128-.311.367-.547.24-.239.551-.367a1.7 1.7 0 0 1 1.297 0q.311.128.547.367.239.235.367.547a1.7 1.7 0 0 1-.914 2.215 1.7 1.7 0 0 1-.649.129m0 0" stroke="#ffd452" stroke-width="1.694"/>
  </g>
  <path fill="#ffd452" d="M26.398 22.29a1.7 1.7 0 0 1-.648-.13 1.7 1.7 0 0 1-.55-.367 1.685 1.685 0 0 1-.367-1.844 1.68 1.68 0 0 1 .917-.918 1.7 1.7 0 0 1 1.297 0 1.7 1.7 0 0 1 .914.918q.129.31.129.649a1.7 1.7 0 0 1-.496 1.195q-.236.239-.547.367a1.7 1.7 0 0 1-.649.13m0 0"/>
  <g clip-path="url(#b)">
    <path stroke-linecap="round" fill="none" stroke-linejoin="round" d="M26.398 22.29a1.7 1.7 0 0 1-.648-.13 1.7 1.7 0 0 1-.55-.367 1.685 1.685 0 0 1-.367-1.844 1.68 1.68 0 0 1 .917-.918 1.7 1.7 0 0 1 1.297 0 1.7 1.7 0 0 1 .914.918q.129.31.129.649a1.7 1.7 0 0 1-.496 1.195q-.236.239-.547.367a1.7 1.7 0 0 1-.649.13m0 0" stroke="#ffd452" stroke-width="1.694"/>
  </g>
  <path stroke-linecap="round" fill="#ffd452" stroke-linejoin="round" d="M14.754 15.941a1.7 1.7 0 0 1-1.2-.496 1.7 1.7 0 0 1-.367-.55 1.685 1.685 0 0 1 .918-2.21 1.7 1.7 0 0 1 1.297-.001q.31.128.551.367a1.685 1.685 0 0 1 .367 1.844q-.13.31-.367.55-.24.237-.55.368a1.7 1.7 0 0 1-.65.128m0 0" stroke="#ffd452" stroke-width="1.694"/>
  <path fill="#ffd452" d="M3.11 9.59a1.7 1.7 0 0 1-.65-.13 1.6 1.6 0 0 1-.546-.366 1.7 1.7 0 0 1-.367-.551 1.7 1.7 0 0 1 0-1.297q.128-.311.367-.547.235-.239.547-.367a1.7 1.7 0 0 1 2.215.914 1.7 1.7 0 0 1-.367 1.848 1.7 1.7 0 0 1-.551.367 1.7 1.7 0 0 1-.649.129m0 0"/>
  <g clip-path="url(#c)">
    <path stroke-linecap="round" fill="none" stroke-linejoin="round" d="M3.11 9.59a1.7 1.7 0 0 1-.65-.13 1.6 1.6 0 0 1-.546-.366 1.7 1.7 0 0 1-.367-.551 1.7 1.7 0 0 1 0-1.297q.128-.311.367-.547.235-.239.547-.367a1.7 1.7 0 0 1 2.215.914 1.7 1.7 0 0 1-.367 1.848 1.7 1.7 0 0 1-.551.367 1.7 1.7 0 0 1-.649.129m0 0" stroke="#ffd452" stroke-width="1.694"/>
  </g>
  <path fill="#ffd452" d="M3.11 22.29a1.7 1.7 0 0 1-.65-.13 1.6 1.6 0 0 1-.546-.367 1.685 1.685 0 0 1-.367-1.844 1.685 1.685 0 0 1 2.21-.918q.311.131.552.367.238.24.367.551.129.31.129.649a1.685 1.685 0 0 1-1.047 1.562 1.7 1.7 0 0 1-.649.13m0 0"/>
  <g clip-path="url(#d)">
    <path stroke-linecap="round" fill="none" stroke-linejoin="round" d="M3.11 22.29a1.7 1.7 0 0 1-.65-.13 1.6 1.6 0 0 1-.546-.367 1.685 1.685 0 0 1-.367-1.844 1.685 1.685 0 0 1 2.21-.918q.311.131.552.367.238.24.367.551.129.31.129.649a1.685 1.685 0 0 1-1.047 1.562 1.7 1.7 0 0 1-.649.13m0 0" stroke="#ffd452" stroke-width="1.694"/>
  </g>
  <path stroke-linecap="round" fill="#ffd452" stroke-linejoin="round" d="M26.398 7.895v12.703m0 0-11.644-6.352m0 0L3.109 7.895m0 0v12.703" stroke="#ffd452" stroke-width="1.694"/>
</svg>
